<?xml version="1.0"?>
<svg viewBox="0 0 256 256" xmlns="http://www.w3.org/2000/svg">
<rect fill="none" height="256" width="256"/>
<path d="M176,32v96l-32-24-32,24V32H72A23.9,23.9,0,0,0,48,56V216a23.9,23.9,0,0,1,24-24H208V32Z" opacity="0.2"/>
<polyline fill="none" points="48 216 48 224 192 224" stroke="#000" stroke-linecap="round" stroke-linejoin="round" stroke-width="16"/>
<polyline fill="none" points="176 32 176 128 144 104 112 128 112 32" stroke="#000" stroke-linecap="round" stroke-linejoin="round" stroke-width="16"/>
<path d="M48,216a23.9,23.9,0,0,1,24-24H208V32H72A23.9,23.9,0,0,0,48,56Z" fill="none" stroke="#000" stroke-linecap="round" stroke-linejoin="round" stroke-width="16"/>
</svg>
